<svg width="119" height="12" viewBox="0 0 119 12" fill="none" xmlns="http://www.w3.org/2000/svg">
<path d="M7.00328 3.6616C6.96324 3.24335 6.78505 2.91825 6.46872 2.68631C6.1564 2.45057 5.70993 2.3327 5.12933 2.3327C4.74493 2.3327 4.4246 2.38023 4.16833 2.47529C3.91207 2.57034 3.71987 2.70152 3.59173 2.86882C3.4636 3.03232 3.39753 3.22053 3.39353 3.43346C3.38552 3.60837 3.42156 3.76236 3.50164 3.89544C3.58573 4.02852 3.70585 4.14639 3.86201 4.24905C4.02218 4.34791 4.21438 4.43536 4.43861 4.51141C4.66285 4.58745 4.91511 4.65399 5.1954 4.71103L6.2525 4.93916C6.86113 5.06464 7.39769 5.23194 7.86217 5.44106C8.33066 5.65019 8.72307 5.89924 9.03939 6.18821C9.35973 6.47719 9.60198 6.80989 9.76615 7.18631C9.93032 7.56274 10.0144 7.98479 10.0184 8.45247C10.0144 9.19011 9.8182 9.82319 9.4298 10.3517C9.0414 10.8802 8.48282 11.2852 7.75406 11.5665C7.02931 11.8479 6.1544 11.9886 5.12933 11.9886C4.10026 11.9886 3.20333 11.8422 2.43853 11.5494C1.67374 11.2567 1.07912 10.8118 0.65468 10.2148C0.230239 9.61787 0.0120125 8.86312 0 7.95057H2.84696C2.87098 8.327 2.97709 8.64069 3.16529 8.89163C3.35349 9.14259 3.61175 9.3327 3.9401 9.46198C4.27244 9.59126 4.65684 9.65589 5.09329 9.65589C5.49371 9.65589 5.83406 9.60456 6.11435 9.5019C6.39865 9.39924 6.61688 9.25665 6.76904 9.07414C6.92119 8.89163 6.99927 8.68251 7.00328 8.44677C6.99927 8.22624 6.9272 8.03802 6.78705 7.88213C6.64691 7.72243 6.43068 7.58555 6.13838 7.47148C5.85008 7.35361 5.4817 7.24525 5.03323 7.14639L3.7479 6.86122C2.68279 6.62928 1.84392 6.25475 1.23128 5.73764C0.618643 5.21673 0.314327 4.51331 0.318331 3.62738C0.314327 2.90494 0.518539 2.27186 0.930968 1.72814C1.3434 1.18441 1.91399 0.760457 2.64275 0.456274C3.3715 0.152091 4.20237 0 5.13534 0C6.08833 0 6.91519 0.153992 7.61591 0.461977C8.32065 0.76616 8.86722 1.19392 9.25562 1.74525C9.64402 2.29658 9.84223 2.93536 9.85024 3.6616H7.00328Z" fill="#46799D"/>
<path d="M13.7187 11.8403V0.159696H16.6918V5.09886H16.854L20.9202 0.159696H24.4219L20.0613 5.37262L24.4999 11.8403H20.9442L17.8811 7.24905L16.6918 8.67491V11.8403H13.7187Z" fill="#46799D"/>
<path d="M30.7664 0.159696V11.8403H27.7933V0.159696H30.7664Z" fill="#46799D"/>
<path d="M40.6642 11.8403V0.159696H45.7455C46.6664 0.159696 47.4612 0.317491 48.1299 0.63308C48.8026 0.944867 49.3212 1.39354 49.6856 1.97909C50.0499 2.56084 50.2321 3.25095 50.2321 4.04943C50.2321 4.85932 50.0459 5.54753 49.6735 6.11407C49.3012 6.67681 48.7726 7.10646 48.0879 7.40304C47.4032 7.69582 46.5923 7.84221 45.6554 7.84221H42.442V5.61787H45.1028C45.5513 5.61787 45.9257 5.56274 46.226 5.45247C46.5303 5.3384 46.7605 5.1673 46.9167 4.93916C47.0728 4.70722 47.1509 4.41065 47.1509 4.04943C47.1509 3.68821 47.0728 3.38973 46.9167 3.15399C46.7605 2.91445 46.5303 2.73574 46.226 2.61787C45.9216 2.4962 45.5473 2.43536 45.1028 2.43536H43.6373V11.8403H40.6642ZM47.5894 6.5019L50.6526 11.8403H47.4092L44.4061 6.5019H47.5894Z" fill="#46799D"/>
<path d="M54.0616 11.8403V0.159696H62.6385V2.45247H57.0347V4.84791H62.2V7.14639H57.0347V9.54753H62.6385V11.8403H54.0616Z" fill="#46799D"/>
<path d="M73.3481 3.6616C73.3081 3.24335 73.1299 2.91825 72.8136 2.68631C72.5012 2.45057 72.0548 2.3327 71.4742 2.3327C71.0898 2.3327 70.7694 2.38023 70.5132 2.47529C70.2569 2.57034 70.0647 2.70152 69.9366 2.86882C69.8084 3.03232 69.7424 3.22053 69.7384 3.43346C69.7304 3.60837 69.7664 3.76236 69.8465 3.89544C69.9306 4.02852 70.0507 4.14639 70.2068 4.24905C70.367 4.34791 70.5592 4.43536 70.7834 4.51141C71.0077 4.58745 71.2599 4.65399 71.5402 4.71103L72.5973 4.93916C73.206 5.06464 73.7425 5.23194 74.207 5.44106C74.6755 5.65019 75.0679 5.89924 75.3842 6.18821C75.7046 6.47719 75.9468 6.80989 76.111 7.18631C76.2752 7.56274 76.3592 7.98479 76.3632 8.45247C76.3592 9.19011 76.163 9.82319 75.7746 10.3517C75.3862 10.8802 74.8277 11.2852 74.0989 11.5665C73.3741 11.8479 72.4992 11.9886 71.4742 11.9886C70.4451 11.9886 69.5482 11.8422 68.7834 11.5494C68.0186 11.2567 67.424 10.8118 66.9995 10.2148C66.5751 9.61787 66.3568 8.86312 66.3448 7.95057H69.1918C69.2158 8.327 69.3219 8.64069 69.5101 8.89163C69.6983 9.14259 69.9566 9.3327 70.2849 9.46198C70.6173 9.59126 71.0017 9.65589 71.4381 9.65589C71.8385 9.65589 72.1789 9.60456 72.4592 9.5019C72.7435 9.39924 72.9617 9.25665 73.1139 9.07414C73.266 8.89163 73.3441 8.68251 73.3481 8.44677C73.3441 8.22624 73.272 8.03802 73.1319 7.88213C72.9917 7.72243 72.7755 7.58555 72.4832 7.47148C72.1949 7.35361 71.8265 7.24525 71.3781 7.14639L70.0927 6.86122C69.0276 6.62928 68.1887 6.25475 67.5761 5.73764C66.9635 5.21673 66.6592 4.51331 66.6632 3.62738C66.6592 2.90494 66.8634 2.27186 67.2758 1.72814C67.6882 1.18441 68.2588 0.760457 68.9876 0.456274C69.7163 0.152091 70.5472 0 71.4802 0C72.4332 0 73.26 0.153992 73.9607 0.461977C74.6655 0.76616 75.2121 1.19392 75.6004 1.74525C75.9889 2.29658 76.1871 2.93536 76.1951 3.6616H73.3481Z" fill="#46799D"/>
<path d="M91.6736 6C91.6736 7.28517 91.4134 8.37453 90.8928 9.26806C90.3723 10.1616 89.6675 10.8403 88.7786 11.3042C87.8937 11.7681 86.9007 12 85.7995 12C84.6944 12 83.6993 11.7662 82.8144 11.2985C81.9295 10.8308 81.2268 10.1521 80.7062 9.26236C80.1897 8.36882 79.9314 7.28137 79.9314 6C79.9314 4.71483 80.1897 3.62548 80.7062 2.73194C81.2268 1.8384 81.9295 1.1597 82.8144 0.695818C83.6993 0.231939 84.6944 0 85.7995 0C86.9007 0 87.8937 0.231939 88.7786 0.695818C89.6675 1.1597 90.3723 1.8384 90.8928 2.73194C91.4134 3.62548 91.6736 4.71483 91.6736 6ZM88.6345 6C88.6345 5.23954 88.5204 4.59696 88.2921 4.07224C88.0679 3.54753 87.7436 3.15019 87.3191 2.88023C86.8987 2.61027 86.3921 2.47529 85.7995 2.47529C85.2109 2.47529 84.7044 2.61027 84.2799 2.88023C83.8555 3.15019 83.5292 3.54753 83.3009 4.07224C83.0767 4.59696 82.9646 5.23954 82.9646 6C82.9646 6.76046 83.0767 7.40304 83.3009 7.92776C83.5292 8.45247 83.8555 8.84981 84.2799 9.11977C84.7044 9.38973 85.2109 9.52472 85.7995 9.52472C86.3921 9.52472 86.8987 9.38973 87.3191 9.11977C87.7436 8.84981 88.0679 8.45247 88.2921 7.92776C88.5204 7.40304 88.6345 6.76046 88.6345 6Z" fill="#46799D"/>
<path d="M95.6082 11.8403V0.159696H100.689C101.61 0.159696 102.405 0.317491 103.074 0.63308C103.747 0.944867 104.265 1.39354 104.63 1.97909C104.994 2.56084 105.176 3.25095 105.176 4.04943C105.176 4.85932 104.99 5.54753 104.618 6.11407C104.245 6.67681 103.717 7.10646 103.032 7.40304C102.347 7.69582 101.536 7.84221 100.599 7.84221H97.386V5.61787H100.047C100.495 5.61787 100.87 5.56274 101.17 5.45247C101.474 5.3384 101.705 5.1673 101.861 4.93916C102.017 4.70722 102.095 4.41065 102.095 4.04943C102.095 3.68821 102.017 3.38973 101.861 3.15399C101.705 2.91445 101.474 2.73574 101.17 2.61787C100.866 2.4962 100.491 2.43536 100.047 2.43536H98.5813V11.8403H95.6082ZM102.533 6.5019L105.597 11.8403H102.353L99.3501 6.5019H102.533Z" fill="#46799D"/>
<path d="M108.603 2.45247V0.159696H119V2.45247H115.27V11.8403H112.339V2.45247H108.603Z" fill="#46799D"/>
</svg>
